<svg xmlns="http://www.w3.org/2000/svg" viewBox="-4 -4 140 50"><rect width="1.1" height="10" x="123.272" fill="salmon"/><rect width="1.1" height="10" x="122.272" fill="red"/><rect width="1.1" height="10" x="121.272" fill="red"/><rect width="1.1" height="10" x="120.272" fill="red"/><rect width="1.1" height="10" x="119.272" fill="red"/><rect width="1.1" height="10" x="118.272" fill="red"/><rect width="1.1" height="10" x="117.272" fill="red"/><rect width="1.1" height="10" x="116.272" fill="red"/><rect width="1.1" height="10" x="115.272" fill="red"/><rect width="1.1" height="10" x="114.272" fill="red"/><rect width="1.1" height="10" x="113.272" fill="red"/><rect width="1.1" height="10" x="112.272" fill="red"/><rect width="1.1" height="10" x="111.272" fill="red"/><rect width="1.1" height="10" x="110.272" fill="red"/><rect width="1.1" height="10" x="109.272" fill="red"/><rect width="1.1" height="10" x="108.272" fill="red"/><rect width="1.1" height="10" x="107.272" fill="red"/><rect width="1.1" height="10" x="106.272" fill="red"/><rect width="1.1" height="10" x="105.272" fill="red"/><rect width="1.1" height="10" x="104.272" fill="red"/><rect width="1.1" height="10" x="103.272" fill="rgb(100% 99.432% 0%)"/><rect width="1.1" height="10" x="102.272" fill="rgb(100% 99.404% 0%)"/><rect width="1.1" height="10" x="101.272" fill="rgb(100% 99.377% 0%)"/><rect width="1.1" height="10" x="100.272" fill="rgb(100% 99.349% 0%)"/><rect width="1.1" height="10" x="99.272" fill="rgb(100% 99.321% 0%)"/><rect width="1.1" height="10" x="98.272" fill="rgb(100% 99.293% 0%)"/><rect width="1.1" height="10" x="97.272" fill="rgb(100% 99.266% 0%)"/><rect width="1.1" height="10" x="96.272" fill="rgb(100% 99.238% 0%)"/><rect width="1.1" height="10" x="95.272" fill="rgb(100% 99.21% 0%)"/><rect width="1.1" height="10" x="94.272" fill="rgb(100% 99.183% 0.369%)"/><rect width="1.1" height="10" x="93.272" fill="rgb(100% 99.156% 5.977%)"/><rect width="1.1" height="10" x="92.272" fill="rgb(100% 99.128% 9.69%)"/><rect width="1.1" height="10" x="91.272" fill="rgb(100% 99.101% 12.48%)"/><rect width="1.1" height="10" x="90.272" fill="rgb(100% 99.074% 14.807%)"/><rect width="1.1" height="10" x="89.272" fill="rgb(100% 99.047% 16.845%)"/><rect width="1.1" height="10" x="88.272" fill="rgb(100% 99.02% 18.682%)"/><rect width="1.1" height="10" x="87.272" fill="rgb(100% 98.993% 20.371%)"/><rect width="1.1" height="10" x="86.272" fill="rgb(100% 98.966% 21.946%)"/><rect width="1.1" height="10" x="85.272" fill="rgb(100% 98.939% 23.428%)"/><rect width="1.1" height="10" x="84.272" fill="rgb(100% 98.912% 24.835%)"/><rect width="1.1" height="10" x="83.272" fill="rgb(100% 98.885% 26.179%)"/><rect width="1.1" height="10" x="82.272" fill="rgb(100% 98.859% 27.468%)"/><rect width="1.1" height="10" x="81.272" fill="rgb(100% 98.832% 28.712%)"/><rect width="1.1" height="10" x="80.272" fill="rgb(100% 98.806% 29.915%)"/><rect width="1.1" height="10" x="79.272" fill="rgb(100% 98.779% 31.083%)"/><rect width="1.1" height="10" x="78.272" fill="rgb(100% 98.753% 32.219%)"/><rect width="1.1" height="10" x="77.272" fill="rgb(100% 98.727% 33.327%)"/><rect width="1.1" height="10" x="76.272" fill="rgb(100% 98.7% 34.41%)"/><rect width="1.1" height="10" x="75.272" fill="rgb(100% 98.674% 35.47%)"/><rect width="1.1" height="10" x="74.272" fill="rgb(100% 98.648% 36.509%)"/><rect width="1.1" height="10" x="73.272" fill="rgb(100% 98.622% 37.53%)"/><rect width="1.1" height="10" x="72.272" fill="rgb(100% 98.597% 38.533%)"/><rect width="1.1" height="10" x="71.272" fill="rgb(100% 98.571% 39.521%)"/><rect width="1.1" height="10" x="70.272" fill="rgb(100% 98.545% 40.495%)"/><rect width="1.1" height="10" x="69.272" fill="rgb(100% 98.52% 41.454%)"/><rect width="1.1" height="10" x="68.272" fill="rgb(100% 98.494% 42.402%)"/><rect width="1.1" height="10" x="67.272" fill="rgb(100% 98.469% 43.338%)"/><rect width="1.1" height="10" x="66.272" fill="rgb(100% 98.443% 44.264%)"/><rect width="1.1" height="10" x="65.272" fill="rgb(100% 98.418% 45.179%)"/><rect width="1.1" height="10" x="64.272" fill="rgb(100% 98.393% 46.086%)"/><rect width="1.1" height="10" x="63.272" fill="rgb(100% 98.368% 46.984%)"/><rect width="1.1" height="10" x="62.272" fill="rgb(100% 98.343% 47.873%)"/><rect width="1.1" height="10" x="61.272" fill="rgb(100% 98.318% 48.755%)"/><rect width="1.1" height="10" x="60.272" fill="rgb(100% 98.293% 49.63%)"/><rect width="1.1" height="10" x="59.272" fill="rgb(100% 98.269% 50.499%)"/><rect width="1.1" height="10" x="58.272" fill="rgb(100% 98.244% 51.361%)"/><rect width="1.1" height="10" x="57.272" fill="rgb(100% 98.219% 52.217%)"/><rect width="1.1" height="10" x="56.272" fill="rgb(100% 98.195% 53.067%)"/><rect width="1.1" height="10" x="55.272" fill="rgb(100% 98.171% 53.913%)"/><rect width="1.1" height="10" x="54.272" fill="rgb(100% 98.147% 54.753%)"/><rect width="1.1" height="10" x="53.272" fill="rgb(100% 98.122% 55.589%)"/><rect width="1.1" height="10" x="52.272" fill="rgb(100% 98.099% 56.42%)"/><rect width="1.1" height="10" x="51.272" fill="rgb(100% 98.075% 57.247%)"/><rect width="1.1" height="10" x="50.272" fill="rgb(100% 98.051% 58.07%)"/><rect width="1.1" height="10" x="49.272" fill="rgb(100% 98.027% 58.89%)"/><rect width="1.1" height="10" x="48.272" fill="rgb(100% 98.004% 59.706%)"/><rect width="1.1" height="10" x="47.272" fill="rgb(100% 97.98% 60.518%)"/><rect width="1.1" height="10" x="46.272" fill="rgb(100% 97.957% 61.327%)"/><rect width="1.1" height="10" x="45.272" fill="rgb(100% 97.934% 62.133%)"/><rect width="1.1" height="10" x="44.272" fill="rgb(100% 97.911% 62.937%)"/><rect width="1.1" height="10" x="43.272" fill="rgb(100% 97.888% 63.737%)"/><rect width="1.1" height="10" x="42.272" fill="rgb(100% 97.865% 64.535%)"/><rect width="1.1" height="10" x="41.272" fill="rgb(100% 97.842% 65.331%)"/><rect width="1.1" height="10" x="40.272" fill="rgb(100% 97.819% 66.124%)"/><rect width="1.1" height="10" x="39.272" fill="rgb(100% 97.797% 66.915%)"/><rect width="1.1" height="10" x="38.272" fill="rgb(100% 97.774% 67.704%)"/><rect width="1.1" height="10" x="37.272" fill="rgb(100% 97.752% 68.49%)"/><rect width="1.1" height="10" x="36.272" fill="rgb(100% 97.73% 69.275%)"/><rect width="1.1" height="10" x="35.272" fill="rgb(100% 97.708% 70.058%)"/><rect width="1.1" height="10" x="34.272" fill="rgb(100% 97.686% 70.839%)"/><rect width="1.1" height="10" x="33.272" fill="rgb(100% 97.664% 71.619%)"/><rect width="1.1" height="10" x="32.272" fill="rgb(100% 97.642% 72.397%)"/><rect width="1.1" height="10" x="31.272" fill="rgb(100% 97.621% 73.174%)"/><rect width="1.1" height="10" x="30.272" fill="rgb(100% 97.599% 73.949%)"/><rect width="1.1" height="10" x="29.272" fill="rgb(100% 97.578% 74.723%)"/><rect width="1.1" height="10" x="28.272" fill="rgb(100% 97.557% 75.495%)"/><rect width="1.1" height="10" x="27.272" fill="rgb(100% 97.535% 76.267%)"/><rect width="1.1" height="10" x="26.272" fill="rgb(100% 97.514% 77.037%)"/><rect width="1.1" height="10" x="25.272" fill="rgb(99.967% 97.494% 77.806%)"/><rect width="1.1" height="10" x="24.272" fill="rgb(99.88% 97.473% 78.574%)"/><rect width="1.1" height="10" x="23.272" fill="rgb(99.791% 97.452% 79.341%)"/><rect width="1.1" height="10" x="22.272" fill="rgb(99.699% 97.432% 80.107%)"/><rect width="1.1" height="10" x="21.272" fill="rgb(99.605% 97.412% 80.872%)"/><rect width="1.1" height="10" x="20.272" fill="rgb(99.509% 97.392% 81.637%)"/><rect width="1.1" height="10" x="19.272" fill="rgb(99.411% 97.372% 82.4%)"/><rect width="1.1" height="10" x="18.272" fill="rgb(99.31% 97.352% 83.163%)"/><rect width="1.1" height="10" x="17.272" fill="rgb(99.206% 97.332% 83.925%)"/><rect width="1.1" height="10" x="16.272" fill="rgb(99.1% 97.312% 84.687%)"/><rect width="1.1" height="10" x="15.272" fill="rgb(98.992% 97.293% 85.448%)"/><rect width="1.1" height="10" x="14.272" fill="rgb(98.881% 97.274% 86.208%)"/><rect width="1.1" height="10" x="13.272" fill="rgb(98.768% 97.254% 86.968%)"/><rect width="1.1" height="10" x="12.272" fill="rgb(98.652% 97.235% 87.727%)"/><rect width="1.1" height="10" x="11.272" fill="rgb(98.534% 97.216% 88.486%)"/><rect width="1.1" height="10" x="10.272" fill="rgb(98.413% 97.198% 89.244%)"/><rect width="1.1" height="10" x="9.272" fill="rgb(98.289% 97.179% 90.002%)"/><rect width="1.1" height="10" x="8.272" fill="rgb(98.163% 97.161% 90.759%)"/><rect width="1.1" height="10" x="7.272" fill="rgb(98.034% 97.142% 91.517%)"/><rect width="1.1" height="10" x="6.272" fill="rgb(97.902% 97.124% 92.273%)"/><rect width="1.1" height="10" x="5.272" fill="rgb(97.768% 97.106% 93.03%)"/><rect width="1.1" height="10" x="4.272" fill="rgb(97.631% 97.088% 93.786%)"/><rect width="1.1" height="10" x="3.272" fill="rgb(97.491% 97.071% 94.542%)"/><rect width="1.1" height="10" x="2.272" fill="rgb(97.348% 97.053% 95.298%)"/><rect width="1.1" height="10" x="1.272" fill="rgb(97.203% 97.036% 96.053%)"/><rect width="1.1" height="10" x=".272" fill="rgb(97.055% 97.019% 96.809%)"/><rect width="123.272" height="25" y="15" fill="none" stroke="gray" stroke-width=".2"/><polyline fill="none" stroke="red" stroke-width=".2" points="123.272 15.004 122.272 15 121.272 15 120.272 15 119.272 15 118.272 15 117.272 15 116.272 15 115.272 15 114.272 15 113.272 15 112.272 15 111.272 15 110.272 15 109.272 15 108.272 15 107.272 15 106.272 15 105.272 15 104.272 15 103.272 15 102.272 15 101.272 15 100.272 15 99.272 15 98.272 15 97.272 15 96.272 15 95.272 15 94.272 15 93.272 15 92.272 15 91.272 15 90.272 15 89.272 15 88.272 15 87.272 15 86.272 15 85.272 15 84.272 15 83.272 15 82.272 15 81.272 15 80.272 15 79.272 15 78.272 15 77.272 15 76.272 15 75.272 15 74.272 15 73.272 15 72.272 15 71.272 15 70.272 15 69.272 15 68.272 15 67.272 15 66.272 15 65.272 15 64.272 15 63.272 15 62.272 15 61.272 15 60.272 15 59.272 15 58.272 15 57.272 15 56.272 15 55.272 15 54.272 15 53.272 15 52.272 15 51.272 15 50.272 15 49.272 15 48.272 15 47.272 15 46.272 15 45.272 15 44.272 15 43.272 15 42.272 15 41.272 15 40.272 15 39.272 15 38.272 15 37.272 15 36.272 15 35.272 15 34.272 15 33.272 15 32.272 15 31.272 15 30.272 15 29.272 15 28.272 15 27.272 15 26.272 15 25.272 15.019 24.272 15.068 23.272 15.119 22.272 15.171 21.272 15.224 20.272 15.278 19.272 15.334 18.272 15.391 17.272 15.449 16.272 15.509 15.272 15.569 14.272 15.632 13.272 15.695 12.272 15.76 11.272 15.826 10.272 15.893 9.272 15.962 8.272 16.032 7.272 16.104 6.272 16.176 5.272 16.251 4.272 16.326 3.272 16.403 2.272 16.482 1.272 16.561 .272 16.642"/><polyline fill="none" stroke="green" stroke-width=".2" points="123.272 15 122.272 15.016 121.272 15.032 120.272 15.049 119.272 15.065 118.272 15.081 117.272 15.097 116.272 15.114 115.272 15.13 114.272 15.146 113.272 15.162 112.272 15.178 111.272 15.194 110.272 15.21 109.272 15.226 108.272 15.242 107.272 15.258 106.272 15.274 105.272 15.29 104.272 15.306 103.272 15.322 102.272 15.337 101.272 15.353 100.272 15.369 99.272 15.384 98.272 15.4 97.272 15.416 96.272 15.431 95.272 15.447 94.272 15.462 93.272 15.478 92.272 15.493 91.272 15.508 90.272 15.523 89.272 15.539 88.272 15.554 87.272 15.569 86.272 15.584 85.272 15.599 84.272 15.614 83.272 15.629 82.272 15.644 81.272 15.659 80.272 15.674 79.272 15.689 78.272 15.703 77.272 15.718 76.272 15.733 75.272 15.747 74.272 15.762 73.272 15.776 72.272 15.791 71.272 15.805 70.272 15.819 69.272 15.834 68.272 15.848 67.272 15.862 66.272 15.876 65.272 15.89 64.272 15.904 63.272 15.918 62.272 15.932 61.272 15.946 60.272 15.96 59.272 15.973 58.272 15.987 57.272 16.001 56.272 16.014 55.272 16.028 54.272 16.041 53.272 16.055 52.272 16.068 51.272 16.081 50.272 16.094 49.272 16.107 48.272 16.12 47.272 16.133 46.272 16.146 45.272 16.159 44.272 16.172 43.272 16.185 42.272 16.197 41.272 16.21 40.272 16.222 39.272 16.235 38.272 16.247 37.272 16.26 36.272 16.272 35.272 16.284 34.272 16.296 33.272 16.308 32.272 16.32 31.272 16.332 30.272 16.344 29.272 16.356 28.272 16.367 27.272 16.379 26.272 16.39 25.272 16.402 24.272 16.413 23.272 16.424 22.272 16.436 21.272 16.447 20.272 16.458 19.272 16.469 18.272 16.48 17.272 16.491 16.272 16.501 15.272 16.512 14.272 16.523 13.272 16.533 12.272 16.544 11.272 16.554 10.272 16.564 9.272 16.574 8.272 16.584 7.272 16.594 6.272 16.604 5.272 16.614 4.272 16.624 3.272 16.634 2.272 16.643 1.272 16.653 .272 16.662"/><polyline fill="none" stroke="#00f" stroke-width=".2" points="123.272 40 122.272 40 121.272 40 120.272 40 119.272 40 118.272 40 117.272 40 116.272 40 115.272 40 114.272 40 113.272 40 112.272 40 111.272 40 110.272 40 109.272 40 108.272 40 107.272 40 106.272 40 105.272 40 104.272 40 103.272 40 102.272 40 101.272 40 100.272 40 99.272 40 98.272 40 97.272 40 96.272 40 95.272 40 94.272 39.993 93.272 39.878 92.272 39.761 91.272 39.642 90.272 39.521 89.272 39.397 88.272 39.271 87.272 39.143 86.272 39.013 85.272 38.88 84.272 38.745 83.272 38.607 82.272 38.467 81.272 38.324 80.272 38.18 79.272 38.032 78.272 37.882 77.272 37.73 76.272 37.575 75.272 37.417 74.272 37.257 73.272 37.095 72.272 36.929 71.272 36.762 70.272 36.591 69.272 36.418 68.272 36.242 67.272 36.063 66.272 35.882 65.272 35.697 64.272 35.51 63.272 35.321 62.272 35.128 61.272 34.932 60.272 34.734 59.272 34.533 58.272 34.329 57.272 34.122 56.272 33.912 55.272 33.698 54.272 33.482 53.272 33.263 52.272 33.041 51.272 32.816 50.272 32.588 49.272 32.356 48.272 32.122 47.272 31.884 46.272 31.644 45.272 31.4 44.272 31.152 43.272 30.902 42.272 30.648 41.272 30.391 40.272 30.131 39.272 29.867 38.272 29.601 37.272 29.33 36.272 29.057 35.272 28.78 34.272 28.499 33.272 28.215 32.272 27.928 31.272 27.637 30.272 27.343 29.272 27.045 28.272 26.743 27.272 26.438 26.272 26.13 25.272 25.817 24.272 25.502 23.272 25.182 22.272 24.859 21.272 24.532 20.272 24.201 19.272 23.867 18.272 23.529 17.272 23.187 16.272 22.842 15.272 22.492 14.272 22.139 13.272 21.782 12.272 21.42 11.272 21.055 10.272 20.687 9.272 20.314 8.272 19.937 7.272 19.556 6.272 19.171 5.272 18.782 4.272 18.389 3.272 17.992 2.272 17.591 1.272 17.186 .272 16.777"/><g style="font:1.5px sans-serif;text-anchor:middle"><text x="0" y="-1">0</text><text x="30" y="-1">30</text><text x="60" y="-1">60</text><text x="90" y="-1">90</text><text x="120" y="-1">120</text></g></svg>