<svg xmlns="http://www.w3.org/2000/svg" viewBox="-4 -4 140 50"><rect width="1.1" height="10" x="123.272" fill="salmon"/><rect width="1.1" height="10" x="122.272" fill="red"/><rect width="1.1" height="10" x="121.272" fill="red"/><rect width="1.1" height="10" x="120.272" fill="red"/><rect width="1.1" height="10" x="119.272" fill="red"/><rect width="1.1" height="10" x="118.272" fill="red"/><rect width="1.1" height="10" x="117.272" fill="red"/><rect width="1.1" height="10" x="116.272" fill="red"/><rect width="1.1" height="10" x="115.272" fill="red"/><rect width="1.1" height="10" x="114.272" fill="red"/><rect width="1.1" height="10" x="113.272" fill="red"/><rect width="1.1" height="10" x="112.272" fill="red"/><rect width="1.1" height="10" x="111.272" fill="red"/><rect width="1.1" height="10" x="110.272" fill="red"/><rect width="1.1" height="10" x="109.272" fill="red"/><rect width="1.1" height="10" x="108.272" fill="red"/><rect width="1.1" height="10" x="107.272" fill="red"/><rect width="1.1" height="10" x="106.272" fill="red"/><rect width="1.1" height="10" x="105.272" fill="red"/><rect width="1.1" height="10" x="104.272" fill="red"/><rect width="1.1" height="10" x="103.272" fill="red"/><rect width="1.1" height="10" x="102.272" fill="red"/><rect width="1.1" height="10" x="101.272" fill="red"/><rect width="1.1" height="10" x="100.272" fill="red"/><rect width="1.1" height="10" x="99.272" fill="red"/><rect width="1.1" height="10" x="98.272" fill="red"/><rect width="1.1" height="10" x="97.272" fill="red"/><rect width="1.1" height="10" x="96.272" fill="red"/><rect width="1.1" height="10" x="95.272" fill="red"/><rect width="1.1" height="10" x="94.272" fill="red"/><rect width="1.1" height="10" x="93.272" fill="red"/><rect width="1.1" height="10" x="92.272" fill="red"/><rect width="1.1" height="10" x="91.272" fill="red"/><rect width="1.1" height="10" x="90.272" fill="red"/><rect width="1.1" height="10" x="89.272" fill="red"/><rect width="1.1" height="10" x="88.272" fill="red"/><rect width="1.1" height="10" x="87.272" fill="red"/><rect width="1.1" height="10" x="86.272" fill="red"/><rect width="1.1" height="10" x="85.272" fill="red"/><rect width="1.1" height="10" x="84.272" fill="red"/><rect width="1.1" height="10" x="83.272" fill="red"/><rect width="1.1" height="10" x="82.272" fill="red"/><rect width="1.1" height="10" x="81.272" fill="red"/><rect width="1.1" height="10" x="80.272" fill="red"/><rect width="1.1" height="10" x="79.272" fill="red"/><rect width="1.1" height="10" x="78.272" fill="red"/><rect width="1.1" height="10" x="77.272" fill="red"/><rect width="1.1" height="10" x="76.272" fill="red"/><rect width="1.1" height="10" x="75.272" fill="red"/><rect width="1.1" height="10" x="74.272" fill="red"/><rect width="1.1" height="10" x="73.272" fill="red"/><rect width="1.1" height="10" x="72.272" fill="red"/><rect width="1.1" height="10" x="71.272" fill="red"/><rect width="1.1" height="10" x="70.272" fill="red"/><rect width="1.1" height="10" x="69.272" fill="red"/><rect width="1.1" height="10" x="68.272" fill="red"/><rect width="1.1" height="10" x="67.272" fill="red"/><rect width="1.1" height="10" x="66.272" fill="red"/><rect width="1.1" height="10" x="65.272" fill="red"/><rect width="1.1" height="10" x="64.272" fill="red"/><rect width="1.1" height="10" x="63.272" fill="red"/><rect width="1.1" height="10" x="62.272" fill="red"/><rect width="1.1" height="10" x="61.272" fill="red"/><rect width="1.1" height="10" x="60.272" fill="red"/><rect width="1.1" height="10" x="59.272" fill="red"/><rect width="1.1" height="10" x="58.272" fill="red"/><rect width="1.1" height="10" x="57.272" fill="red"/><rect width="1.1" height="10" x="56.272" fill="red"/><rect width="1.1" height="10" x="55.272" fill="red"/><rect width="1.1" height="10" x="54.272" fill="red"/><rect width="1.1" height="10" x="53.272" fill="red"/><rect width="1.1" height="10" x="52.272" fill="red"/><rect width="1.1" height="10" x="51.272" fill="red"/><rect width="1.1" height="10" x="50.272" fill="red"/><rect width="1.1" height="10" x="49.272" fill="red"/><rect width="1.1" height="10" x="48.272" fill="red"/><rect width="1.1" height="10" x="47.272" fill="red"/><rect width="1.1" height="10" x="46.272" fill="red"/><rect width="1.1" height="10" x="45.272" fill="red"/><rect width="1.1" height="10" x="44.272" fill="red"/><rect width="1.1" height="10" x="43.272" fill="red"/><rect width="1.1" height="10" x="42.272" fill="red"/><rect width="1.1" height="10" x="41.272" fill="red"/><rect width="1.1" height="10" x="40.272" fill="red"/><rect width="1.1" height="10" x="39.272" fill="red"/><rect width="1.1" height="10" x="38.272" fill="red"/><rect width="1.1" height="10" x="37.272" fill="red"/><rect width="1.1" height="10" x="36.272" fill="red"/><rect width="1.1" height="10" x="35.272" fill="red"/><rect width="1.1" height="10" x="34.272" fill="red"/><rect width="1.1" height="10" x="33.272" fill="red"/><rect width="1.1" height="10" x="32.272" fill="red"/><rect width="1.1" height="10" x="31.272" fill="salmon"/><rect width="1.1" height="10" x="30.272" fill="salmon"/><rect width="1.1" height="10" x="29.272" fill="salmon"/><rect width="1.1" height="10" x="28.272" fill="salmon"/><rect width="1.1" height="10" x="27.272" fill="salmon"/><rect width="1.1" height="10" x="26.272" fill="salmon"/><rect width="1.1" height="10" x="25.272" fill="rgb(99.967% 97.494% 77.806%)"/><rect width="1.1" height="10" x="24.272" fill="rgb(99.88% 97.473% 78.574%)"/><rect width="1.1" height="10" x="23.272" fill="rgb(99.791% 97.452% 79.341%)"/><rect width="1.1" height="10" x="22.272" fill="rgb(99.699% 97.432% 80.107%)"/><rect width="1.1" height="10" x="21.272" fill="rgb(99.605% 97.412% 80.872%)"/><rect width="1.1" height="10" x="20.272" fill="rgb(99.509% 97.392% 81.637%)"/><rect width="1.1" height="10" x="19.272" fill="rgb(99.411% 97.372% 82.4%)"/><rect width="1.1" height="10" x="18.272" fill="rgb(99.31% 97.352% 83.163%)"/><rect width="1.1" height="10" x="17.272" fill="rgb(99.206% 97.332% 83.925%)"/><rect width="1.1" height="10" x="16.272" fill="rgb(99.1% 97.312% 84.687%)"/><rect width="1.1" height="10" x="15.272" fill="rgb(98.992% 97.293% 85.448%)"/><rect width="1.1" height="10" x="14.272" fill="rgb(98.881% 97.274% 86.208%)"/><rect width="1.1" height="10" x="13.272" fill="rgb(98.768% 97.254% 86.968%)"/><rect width="1.1" height="10" x="12.272" fill="rgb(98.652% 97.235% 87.727%)"/><rect width="1.1" height="10" x="11.272" fill="rgb(98.534% 97.216% 88.486%)"/><rect width="1.1" height="10" x="10.272" fill="rgb(98.413% 97.198% 89.244%)"/><rect width="1.1" height="10" x="9.272" fill="rgb(98.289% 97.179% 90.002%)"/><rect width="1.1" height="10" x="8.272" fill="rgb(98.163% 97.161% 90.759%)"/><rect width="1.1" height="10" x="7.272" fill="rgb(98.034% 97.142% 91.517%)"/><rect width="1.1" height="10" x="6.272" fill="rgb(97.902% 97.124% 92.273%)"/><rect width="1.1" height="10" x="5.272" fill="rgb(97.768% 97.106% 93.03%)"/><rect width="1.1" height="10" x="4.272" fill="rgb(97.631% 97.088% 93.786%)"/><rect width="1.1" height="10" x="3.272" fill="rgb(97.491% 97.071% 94.542%)"/><rect width="1.1" height="10" x="2.272" fill="rgb(97.348% 97.053% 95.298%)"/><rect width="1.1" height="10" x="1.272" fill="rgb(97.203% 97.036% 96.053%)"/><rect width="1.1" height="10" x=".272" fill="rgb(97.055% 97.019% 96.809%)"/><rect width="123.272" height="25" y="15" fill="none" stroke="gray" stroke-width=".2"/><polyline fill="none" stroke="red" stroke-width=".2" points="123.272 15 122.272 14.973 121.272 14.946 120.272 14.92 119.272 14.894 118.272 14.869 117.272 14.844 116.272 14.82 115.272 14.796 114.272 14.772 113.272 14.749 112.272 14.726 111.272 14.704 110.272 14.683 109.272 14.662 108.272 14.641 107.272 14.621 106.272 14.601 105.272 14.582 104.272 14.564 103.272 14.546 102.272 14.528 101.272 14.511 100.272 14.495 99.272 14.479 98.272 14.464 97.272 14.449 96.272 14.435 95.272 14.421 94.272 14.408 93.272 14.396 92.272 14.384 91.272 14.373 90.272 14.362 89.272 14.352 88.272 14.343 87.272 14.334 86.272 14.326 85.272 14.318 84.272 14.312 83.272 14.305 82.272 14.3 81.272 14.295 80.272 14.291 79.272 14.287 78.272 14.284 77.272 14.282 76.272 14.281 75.272 14.28 74.272 14.28 73.272 14.281 72.272 14.282 71.272 14.284 70.272 14.287 69.272 14.29 68.272 14.295 67.272 14.3 66.272 14.305 65.272 14.312 64.272 14.319 63.272 14.327 62.272 14.336 61.272 14.346 60.272 14.356 59.272 14.367 58.272 14.379 57.272 14.392 56.272 14.406 55.272 14.42 54.272 14.435 53.272 14.451 52.272 14.468 51.272 14.486 50.272 14.504 49.272 14.524 48.272 14.544 47.272 14.565 46.272 14.587 45.272 14.61 44.272 14.634 43.272 14.659 42.272 14.684 41.272 14.711 40.272 14.738 39.272 14.766 38.272 14.796 37.272 14.826 36.272 14.857 35.272 14.889 34.272 14.922 33.272 14.955 32.272 14.99 31.272 15.026 30.272 15.063 29.272 15.1 28.272 15.139 27.272 15.179 26.272 15.219 25.272 15.261 24.272 15.304 23.272 15.347 22.272 15.392 21.272 15.438 20.272 15.485 19.272 15.532 18.272 15.581 17.272 15.631 16.272 15.682 15.272 15.734 14.272 15.787 13.272 15.841 12.272 15.896 11.272 15.952 10.272 16.009 9.272 16.068 8.272 16.127 7.272 16.188 6.272 16.249 5.272 16.312 4.272 16.376 3.272 16.441 2.272 16.507 1.272 16.575 .272 16.643"/><polyline fill="none" stroke="green" stroke-width=".2" points="123.272 15 122.272 15.015 121.272 15.029 120.272 15.044 119.272 15.059 118.272 15.073 117.272 15.088 116.272 15.102 115.272 15.117 114.272 15.131 113.272 15.146 112.272 15.161 111.272 15.175 110.272 15.19 109.272 15.204 108.272 15.219 107.272 15.233 106.272 15.248 105.272 15.262 104.272 15.276 103.272 15.291 102.272 15.305 101.272 15.32 100.272 15.334 99.272 15.348 98.272 15.363 97.272 15.377 96.272 15.391 95.272 15.406 94.272 15.42 93.272 15.434 92.272 15.449 91.272 15.463 90.272 15.477 89.272 15.491 88.272 15.506 87.272 15.52 86.272 15.534 85.272 15.548 84.272 15.562 83.272 15.576 82.272 15.59 81.272 15.605 80.272 15.619 79.272 15.633 78.272 15.647 77.272 15.661 76.272 15.675 75.272 15.689 74.272 15.703 73.272 15.716 72.272 15.73 71.272 15.744 70.272 15.758 69.272 15.772 68.272 15.786 67.272 15.8 66.272 15.813 65.272 15.827 64.272 15.841 63.272 15.855 62.272 15.868 61.272 15.882 60.272 15.896 59.272 15.909 58.272 15.923 57.272 15.936 56.272 15.95 55.272 15.963 54.272 15.977 53.272 15.99 52.272 16.004 51.272 16.017 50.272 16.031 49.272 16.044 48.272 16.057 47.272 16.071 46.272 16.084 45.272 16.097 44.272 16.11 43.272 16.124 42.272 16.137 41.272 16.15 40.272 16.163 39.272 16.176 38.272 16.189 37.272 16.202 36.272 16.215 35.272 16.228 34.272 16.241 33.272 16.254 32.272 16.267 31.272 16.28 30.272 16.293 29.272 16.305 28.272 16.318 27.272 16.331 26.272 16.344 25.272 16.356 24.272 16.369 23.272 16.381 22.272 16.394 21.272 16.407 20.272 16.419 19.272 16.432 18.272 16.444 17.272 16.456 16.272 16.469 15.272 16.481 14.272 16.493 13.272 16.506 12.272 16.518 11.272 16.53 10.272 16.542 9.272 16.554 8.272 16.567 7.272 16.579 6.272 16.591 5.272 16.603 4.272 16.615 3.272 16.626 2.272 16.638 1.272 16.65 .272 16.662"/><polyline fill="none" stroke="#00f" stroke-width=".2" points="123.272 40 122.272 39.946 121.272 39.89 120.272 39.833 119.272 39.775 118.272 39.715 117.272 39.653 116.272 39.59 115.272 39.525 114.272 39.459 113.272 39.391 112.272 39.322 111.272 39.251 110.272 39.178 109.272 39.104 108.272 39.028 107.272 38.95 106.272 38.871 105.272 38.79 104.272 38.707 103.272 38.622 102.272 38.535 101.272 38.447 100.272 38.357 99.272 38.265 98.272 38.171 97.272 38.075 96.272 37.977 95.272 37.878 94.272 37.776 93.272 37.672 92.272 37.567 91.272 37.459 90.272 37.35 89.272 37.238 88.272 37.124 87.272 37.008 86.272 36.89 85.272 36.77 84.272 36.648 83.272 36.524 82.272 36.397 81.272 36.268 80.272 36.137 79.272 36.004 78.272 35.869 77.272 35.731 76.272 35.591 75.272 35.449 74.272 35.304 73.272 35.157 72.272 35.007 71.272 34.856 70.272 34.701 69.272 34.545 68.272 34.386 67.272 34.224 66.272 34.06 65.272 33.893 64.272 33.724 63.272 33.552 62.272 33.378 61.272 33.201 60.272 33.022 59.272 32.84 58.272 32.655 57.272 32.468 56.272 32.278 55.272 32.085 54.272 31.89 53.272 31.692 52.272 31.491 51.272 31.287 50.272 31.081 49.272 30.871 48.272 30.659 47.272 30.444 46.272 30.226 45.272 30.006 44.272 29.782 43.272 29.555 42.272 29.326 41.272 29.093 40.272 28.858 39.272 28.619 38.272 28.378 37.272 28.133 36.272 27.886 35.272 27.635 34.272 27.381 33.272 27.124 32.272 26.864 31.272 26.601 30.272 26.335 29.272 26.065 28.272 25.792 27.272 25.516 26.272 25.237 25.272 24.954 24.272 24.669 23.272 24.379 22.272 24.087 21.272 23.791 20.272 23.492 19.272 23.189 18.272 22.883 17.272 22.574 16.272 22.261 15.272 21.945 14.272 21.625 13.272 21.302 12.272 20.975 11.272 20.644 10.272 20.31 9.272 19.973 8.272 19.632 7.272 19.287 6.272 18.939 5.272 18.587 4.272 18.231 3.272 17.872 2.272 17.509 1.272 17.142 .272 16.771"/><g style="font:1.5px sans-serif;text-anchor:middle"><text x="0" y="-1">0</text><text x="30" y="-1">30</text><text x="60" y="-1">60</text><text x="90" y="-1">90</text><text x="120" y="-1">120</text></g></svg>